<svg width="520" height="600" viewBox="0 0 520 600" fill="none" xmlns="http://www.w3.org/2000/svg">
<path d="M0 167.2V432.7C0 443.4 5.7 453.3 15 458.7L245 591.5C254.3 596.9 265.7 596.9 275 591.5L505 458.7C514.3 453.3 520 443.4 520 432.7V167.2C520 156.5 514.3 146.6 505 141.2L275 8.49995C265.7 3.09995 254.3 3.09995 245 8.49995L15 141.2C5.7 146.6 0 156.5 0 167.2Z" fill="url(#paint0_linear_534_32)"/>
<path d="M31 185.1V414.9C31 425.6 36.7 435.5 46 440.9L245 555.8C254.3 561.2 265.7 561.2 275 555.8L474 440.9C483.3 435.5 489 425.6 489 414.9V185.1C489 174.4 483.3 164.5 474 159.1L275 44.3C265.7 38.9 254.3 38.9 245 44.3L46 159.1C36.7 164.5 31 174.4 31 185.1Z" fill="url(#paint1_linear_534_32)"/>
<path d="M0 222.1H520V391.7H0V222.1Z" fill="url(#paint2_linear_534_32)"/>
<path d="M102.4 355.1C93.8 355.1 86.4 353.6 80.1 350.6C73.8 347.6 68.6 343.6 64.5 338.7C60.4 333.8 57.3 328.4 55.3 322.7C53.3 317 52.3 311.5 52.3 306.2V303.3C52.3 297.5 53.3 291.7 55.4 285.9C57.5 280.1 60.6 274.9 64.8 270.2C69 265.5 74.2 261.8 80.5 258.9C86.8 256.1 94 254.7 102.4 254.7C110.8 254.7 118.1 256.1 124.3 258.9C130.6 261.7 135.8 265.5 140.1 270.2C144.3 274.9 147.5 280.1 149.5 285.9C151.6 291.7 152.6 297.5 152.6 303.3V306.2C152.6 311.5 151.6 317 149.5 322.7C147.5 328.4 144.4 333.7 140.3 338.7C136.2 343.7 131 347.6 124.7 350.6C118.5 353.6 111 355.1 102.4 355.1ZM102.4 337.9C107.3 337.9 111.6 337 115.6 335.3C119.5 333.6 122.8 331.2 125.6 328.1C128.3 325 130.4 321.5 131.9 317.5C133.3 313.5 134 309.4 134 304.9C134 300.2 133.3 295.9 131.8 291.9C130.3 287.9 128.2 284.4 125.5 281.4C122.8 278.4 119.5 276.1 115.6 274.4C111.7 272.8 107.4 271.9 102.5 271.9C97.7 271.9 93.4 272.7 89.5 274.4C85.6 276.1 82.3 278.4 79.5 281.4C76.8 284.4 74.7 287.9 73.2 291.9C71.8 295.9 71.1 300.2 71.1 304.9C71.1 309.3 71.8 313.5 73.2 317.5C74.6 321.5 76.7 325 79.5 328.1C82.2 331.2 85.6 333.6 89.5 335.3C93.3 337.1 97.6 337.9 102.4 337.9Z" fill="white"/>
<path d="M202.2 355.1C193.9 355.1 186.8 353.8 181 351.1C175.2 348.4 170.8 344.7 167.8 340C164.8 335.3 163.3 329.9 163.3 323.9H181.4C181.4 326.4 182.1 328.9 183.5 331.3C184.9 333.7 187.1 335.6 190.2 337.1C193.3 338.6 197.3 339.3 202.2 339.3C206.8 339.3 210.6 338.6 213.6 337.3C216.6 336 218.9 334.3 220.4 332.2C221.9 330.1 222.7 327.7 222.7 325C222.7 321.7 221.3 319 218.4 317C215.5 315 211.1 313.7 205 313.2L196.7 312.4C187.6 311.6 180.3 308.8 174.9 303.9C169.5 299 166.8 292.5 166.8 284.4C166.8 278.3 168.2 273.1 171.1 268.7C174 264.3 178 260.9 183.1 258.5C188.3 256.1 194.3 254.9 201.3 254.9C208.5 254.9 214.7 256.2 220 258.7C225.3 261.2 229.3 264.8 232.1 269.3C234.9 273.9 236.3 279.2 236.3 285.4H218.2C218.2 282.9 217.6 280.5 216.4 278.3C215.2 276.1 213.3 274.3 210.8 272.9C208.3 271.5 205.1 270.8 201.3 270.8C197.7 270.8 194.6 271.4 192.2 272.7C189.8 274 188 275.6 186.8 277.7C185.6 279.7 185 282 185 284.4C185 287.4 186.1 289.9 188.3 292.2C190.5 294.4 193.9 295.7 198.6 296L206.8 296.8C213.7 297.3 219.6 298.8 224.7 301.1C229.8 303.4 233.8 306.6 236.6 310.6C239.5 314.6 240.9 319.4 240.9 325.1C240.9 331.1 239.3 336.4 236.2 340.9C233.1 345.4 228.6 349 222.8 351.5C216.9 353.9 210.1 355.1 202.2 355.1Z" fill="white"/>
<path d="M300.5 355.1C291.8 355.1 284.4 353.6 278.3 350.6C272.2 347.6 267.2 343.7 263.3 338.7C259.4 333.8 256.6 328.5 254.8 322.8C253 317.1 252.1 311.6 252.1 306.2V303.3C252.1 297.4 253 291.6 254.9 285.8C256.8 280.1 259.6 274.9 263.5 270.2C267.4 265.5 272.3 261.8 278.3 258.9C284.3 256.1 291.5 254.7 299.7 254.7C308.3 254.7 315.8 256.3 322.2 259.4C328.6 262.5 333.7 266.9 337.6 272.4C341.4 278 343.7 284.5 344.5 291.9H325.7C325.1 287.6 323.6 283.9 321.2 281C318.8 278 315.8 275.8 312.1 274.2C308.4 272.6 304.3 271.9 299.7 271.9C295.1 271.9 291 272.7 287.3 274.4C283.7 276.1 280.6 278.4 278.2 281.3C275.8 284.3 273.9 287.7 272.7 291.7C271.4 295.7 270.8 300.1 270.8 304.9C270.8 309.6 271.4 313.9 272.7 317.9C274 321.9 275.8 325.4 278.4 328.4C280.9 331.4 284 333.7 287.7 335.4C291.4 337.1 295.7 337.9 300.5 337.9C307.6 337.9 313.6 336.1 318.5 332.6C323.4 329.1 326.3 324.2 327.4 317.8H346.2C345.3 324.6 343 330.8 339.3 336.4C335.6 342 330.4 346.6 323.9 349.9C317.3 353.4 309.6 355.1 300.5 355.1Z" fill="white"/>
<path d="M361.7 352.6V257.5H379.8V352.6H361.7ZM377.2 273.2V257.6H419.3V273.2H377.2ZM377.2 312.1V296.5H417V312.1H377.2ZM377.2 352.6V337H420.3V352.6H377.2Z" fill="white"/>
<path d="M450.2 311.9C446.1 311.9 442.5 311.1 439.5 309.6C436.5 308.1 434.2 305.9 432.7 303.3C431.1 300.6 430.3 297.7 430.3 294.4H440.4C440.4 297 441.3 299.1 443 300.7C444.7 302.3 447.1 303.1 450.1 303.1C452.1 303.1 453.9 302.7 455.3 302C456.8 301.2 457.9 300.2 458.7 298.8C459.5 297.4 459.9 295.9 459.9 294.1C459.9 291.4 459 289.3 457.3 287.6C455.6 285.9 453.2 285.1 450.2 285.1C448.7 285.1 447.4 285.3 446.3 285.7C445.2 286.1 444.2 286.6 443.4 287.2L438.5 278.9L456.3 266.8L455.6 265.5H432.5V256.6H467.7V267.4L449.5 279.5L443.8 278.5C444.7 278.2 445.7 278 446.8 277.8C447.9 277.6 449.1 277.5 450.3 277.5C454.4 277.5 457.9 278.2 460.8 279.6C463.7 281 466 282.9 467.6 285.4C469.2 287.9 470 290.7 470 293.9V294.9C470 298 469.2 300.9 467.6 303.5C466 306.1 463.8 308.1 460.8 309.7C457.8 311.3 454.4 311.9 450.2 311.9Z" fill="white"/>
<path d="M249.1 476.7L249.9 480.5L257.8 478.2L249.1 476.7Z" fill="white"/>
<path d="M257.5 470.9L254.5 472.6L261.4 477.1L257.5 470.9Z" fill="white"/>
<path d="M263.2 476L270.3 474.4L268.3 472L263.2 476L270.3 474.4L263.2 476Z" fill="white"/>
<path d="M257 470.2C255.2 470.2 253.6 468.7 253.6 466.8C253.6 465 255.1 463.4 257 463.4C258.8 463.4 260.4 464.9 260.4 466.8C260.4 468.7 258.9 470.2 257 470.2ZM257 465.3C256.1 465.3 255.4 466 255.4 466.9C255.4 467.8 256.1 468.5 257 468.5C257.9 468.5 258.6 467.8 258.6 466.9C258.6 466 257.9 465.3 257 465.3Z" fill="white"/>
<path d="M248.8 497.6C247 497.6 245.4 496.1 245.4 494.2C245.4 492.4 246.9 490.8 248.8 490.8C250.6 490.8 252.2 492.3 252.2 494.2C252.1 496.1 250.6 497.6 248.8 497.6ZM248.8 492.6C247.9 492.6 247.2 493.3 247.2 494.2C247.2 495.1 247.9 495.8 248.8 495.8C249.7 495.8 250.4 495.1 250.4 494.2C250.4 493.4 249.7 492.6 248.8 492.6Z" fill="white"/>
<path d="M284.3 477.4C282.5 477.4 280.9 475.9 280.9 474C280.9 472.1 282.4 470.6 284.3 470.6C286.1 470.6 287.7 472.1 287.7 474C287.7 475.9 286.2 477.4 284.3 477.4ZM284.3 472.4C283.4 472.4 282.7 473.1 282.7 474C282.7 474.9 283.4 475.6 284.3 475.6C285.2 475.6 285.9 474.9 285.9 474C285.9 473.1 285.2 472.4 284.3 472.4Z" fill="white"/>
<path d="M265.5 519.5C263.7 519.5 262.1 518 262.1 516.1C262.1 514.3 263.6 512.7 265.5 512.7C267.4 512.7 268.9 514.2 268.9 516.1C268.9 518 267.4 519.5 265.5 519.5ZM265.5 514.6C264.6 514.6 263.9 515.3 263.9 516.2C263.9 517.1 264.6 517.8 265.5 517.8C266.4 517.8 267.1 517.1 267.1 516.2C267.1 515.3 266.4 514.6 265.5 514.6Z" fill="white"/>
<path d="M270.7 451.4C268.9 451.4 267.3 449.9 267.3 448C267.3 446.1 268.8 444.6 270.7 444.6C272.6 444.6 274.1 446.1 274.1 448C274.1 449.9 272.5 451.4 270.7 451.4ZM270.7 446.4C269.8 446.4 269.1 447.1 269.1 448C269.1 448.9 269.8 449.6 270.7 449.6C271.6 449.6 272.3 448.9 272.3 448C272.3 447.2 271.6 446.4 270.7 446.4Z" fill="white"/>
<path d="M268.3 450.4L259 464.1C259.3 464.3 259.6 464.6 259.8 465L269.3 451.1C268.9 450.9 268.6 450.7 268.3 450.4Z" fill="white"/>
<path d="M240 523.9C238.2 523.9 236.6 522.4 236.6 520.5C236.6 518.7 238.1 517.1 240 517.1C241.8 517.1 243.4 518.6 243.4 520.5C243.4 522.4 241.9 523.9 240 523.9ZM240 518.9C239.1 518.9 238.4 519.6 238.4 520.5C238.4 521.4 239.1 522.1 240 522.1C240.9 522.1 241.6 521.4 241.6 520.5C241.6 519.6 240.9 518.9 240 518.9Z" fill="white"/>
<path d="M243.2 519.6L262.6 517.9C262.4 517.6 262.3 517.2 262.2 516.8L242.7 518.6C242.9 518.8 243.1 519.2 243.2 519.6Z" fill="white"/>
<path d="M241.9 517.7L248.2 497.5C247.8 497.4 247.4 497.3 247.1 497.1L240.8 517.2C241.2 517.4 241.6 517.5 241.9 517.7Z" fill="white"/>
<path d="M257.9 463.6V461.6C257.9 455.6 262 450.6 267.6 449.2C267.4 448.8 267.4 448.4 267.4 447.9C267.4 447.7 267.4 447.6 267.4 447.4C261 448.9 256.2 454.7 256.2 461.5V463.5C256.5 463.4 256.8 463.4 257.1 463.4C257.3 463.5 257.6 463.6 257.9 463.6Z" fill="white"/>
<path d="M274 447.6C274 447.8 274 447.9 274 448.1C274 448.5 273.9 449 273.8 449.4C279.3 450.8 283.5 455.8 283.5 461.8V470.9C283.8 470.8 284.1 470.8 284.4 470.8C284.7 470.8 285 470.8 285.3 470.9V461.8C285.2 454.8 280.4 449.1 274 447.6Z" fill="white"/>
<path d="M262.6 517.8L259.7 520.7C257.3 523.1 254.1 524.4 250.7 524.4C247.9 524.4 245.3 523.5 243.1 521.9C242.9 522.4 242.5 522.9 242 523.3C244.5 525.2 247.5 526.2 250.7 526.2C254.6 526.2 258.2 524.7 261 522L263.9 519.1C263.3 518.7 262.9 518.3 262.6 517.8Z" fill="white"/>
<path d="M247.1 497.2C246.6 496.9 246.2 496.5 245.9 496L240.4 501.5C235.9 506 235 512.8 237.7 518.2C238.1 517.8 238.6 517.5 239.2 517.4C236.9 512.6 237.7 506.7 241.6 502.7L247.1 497.2Z" fill="white"/>
<path d="M283.4 477.3V485.9C283.4 488 282.9 490 281.9 491.8C281.3 489 280 486.4 277.9 484.4C277.4 483.9 276.9 483.5 276.4 483.1V461.8C276.4 458.6 273.8 456 270.6 456C267.4 456 264.8 458.6 264.8 461.8V469C264.8 469.5 265.2 469.9 265.7 469.9C266.2 469.9 266.6 469.5 266.6 469V461.8C266.6 459.5 268.4 457.7 270.7 457.7C273 457.7 274.8 459.5 274.8 461.8V482C272.7 480.8 270.3 480.2 267.8 480.2C267.4 480.2 267 480.2 266.6 480.2V479.4C266.6 478.9 266.2 478.5 265.7 478.5C265.2 478.5 264.8 478.9 264.8 479.4V481.1V485.8C264.8 487.5 265.6 489.2 266.9 490.3C267.9 491.2 269.2 491.6 270.6 491.7C271.4 492.5 271.8 493.5 271.8 494.6C271.8 495.7 271.4 496.7 270.6 497.5L269.5 498.6C266.2 498.3 263.2 496.8 261.1 494.3C259.1 492 257.9 489.1 257.9 486V479.7C257.9 479.2 257.5 478.8 257 478.8C256.5 478.8 256.1 479.2 256.1 479.7V485.6L250.4 491.3C250.9 491.6 251.3 492 251.6 492.5L256.2 487.9C256.6 490.4 257.6 492.8 259.2 494.8L246.5 507.5C245.4 508.6 244.8 510.1 244.8 511.6C244.8 513.2 245.4 514.6 246.5 515.7C247.6 516.8 249.1 517.4 250.6 517.4C252.2 517.4 253.6 516.8 254.7 515.7L270.4 500L271.8 498.6C272.9 497.5 273.5 496 273.5 494.5C273.5 492.9 272.9 491.5 271.8 490.4C271.7 490.3 271.5 490.2 271.4 490C270.4 489.1 269.1 488.7 267.7 488.6C266.9 487.8 266.5 486.8 266.5 485.7V481.7C269.5 481.4 272.6 482.2 275 484C275.6 484.4 276.1 484.9 276.6 485.4C278.9 487.7 280.3 490.8 280.3 494.1V494.4C280.3 497.8 279 501 276.6 503.4L267 513C267.5 513.3 267.9 513.7 268.2 514.2L277.8 504.6C280.5 501.9 282 498.2 282 494.3C283.9 491.8 284.9 488.8 284.9 485.6V477C284.6 477.1 284.3 477.1 284 477.1C283.7 477.1 283.7 477.3 283.4 477.3ZM253.6 514.5C252.8 515.3 251.8 515.7 250.7 515.7C249.6 515.7 248.6 515.3 247.8 514.5C247 513.7 246.6 512.7 246.6 511.6C246.6 510.5 247 509.5 247.8 508.7L260.5 496C262.6 498.1 265.2 499.5 268.1 500L253.6 514.5Z" fill="white"/>
<path d="M280.2 491.7C280 491 279.8 490.2 279.5 489.5L266.7 485.1H266.6V485.8C266.6 486 266.6 486.1 266.6 486.3L279.4 490.7L266.7 513C266.9 513.1 267 513.2 267.2 513.2C267.2 513.2 267.1 513.2 267.1 513.1L269 511.2L280.2 491.7Z" fill="white"/>
<path d="M270.6 491.7C270.4 491.7 270.2 491.7 270.1 491.6L266 497L257.9 481.8V484.3L264.8 497.2C265.4 497.5 266.1 497.8 266.7 498L271.1 492.3C271 492 270.8 491.9 270.6 491.7Z" fill="white"/>
<path d="M282 471.6L276.5 466.7V468.3L281.3 472.6C281.5 472.2 281.7 471.9 282 471.6Z" fill="white"/>
<path d="M281.8 476.3L277.4 483.8C277.6 484 277.8 484.2 278 484.4C278.1 484.5 278.2 484.6 278.3 484.7L282.8 477.1C282.4 476.8 282.1 476.6 281.8 476.3Z" fill="white"/>
<path d="M205.4 427.7C204.8 427.7 204.2 427.6 203.7 427.2C202.1 426.3 201.5 424.1 202.4 422.5C203.3 420.9 205.5 420.3 207.1 421.2C208.7 422.1 209.3 424.3 208.4 425.9C207.8 427 206.6 427.7 205.4 427.7ZM205.5 422.5C204.9 422.5 204.4 422.8 204 423.3C203.5 424.1 203.8 425.1 204.6 425.6C205.4 426.1 206.4 425.8 206.9 425C207.4 424.2 207.1 423.2 206.3 422.7C206 422.6 205.7 422.5 205.5 422.5Z" fill="white"/>
<path d="M155.4 430.2C154.8 430.2 154.2 430.1 153.7 429.7C152.1 428.8 151.5 426.6 152.4 425C153.3 423.4 155.5 422.8 157.1 423.7C158.7 424.6 159.3 426.8 158.4 428.4C157.8 429.5 156.6 430.2 155.4 430.2ZM155.4 425C154.8 425 154.3 425.3 153.9 425.8C153.4 426.6 153.7 427.6 154.5 428.1C155.3 428.6 156.3 428.3 156.8 427.5C157.3 426.7 157 425.7 156.2 425.2C156 425.1 155.7 425 155.4 425Z" fill="white"/>
<path d="M219.8 447.5C219.2 447.5 218.6 447.4 218.1 447C217.3 446.5 216.7 445.8 216.5 444.9C216.3 444 216.4 443.1 216.8 442.3C217.7 440.7 219.9 440.1 221.5 441C222.3 441.5 222.9 442.2 223.1 443.1C223.3 444 223.2 444.9 222.8 445.7C222.1 446.9 221 447.5 219.8 447.5ZM219.8 442.4C219.2 442.4 218.7 442.7 218.3 443.2C218.1 443.6 218 444 218.1 444.5C218.2 445 218.5 445.3 218.9 445.5C219.7 446 220.7 445.7 221.2 444.9C221.4 444.5 221.5 444.1 221.4 443.6C221.3 443.2 221 442.8 220.6 442.6C220.4 442.5 220.1 442.4 219.8 442.4Z" fill="white"/>
<path d="M202 424.1L196.2 424.8H187.5L178.7 423.7L159.6 412.9C159.5 413.5 159.3 414.1 158.9 414.6L177.9 425.4C178 425.5 178.1 425.5 178.2 425.5L187.2 426.7H187.3H196.1H196.2L202.2 425.9C202.1 425.3 202 424.7 202 424.1Z" fill="white"/>
<path d="M159.3 410.8C158.4 409.2 156.2 408.6 154.6 409.5C153 410.4 152.4 412.6 153.3 414.2C153.9 415.3 155.1 415.9 156.3 415.9C156.9 415.9 157.5 415.8 158 415.4C159.7 414.5 160.2 412.4 159.3 410.8Z" fill="white"/>
<path d="M156.6 423.5L157 415.9C156.8 415.9 156.6 416 156.3 416C155.9 416 155.6 415.9 155.2 415.8L154.8 423.4C155.4 423.2 156 423.3 156.6 423.5Z" fill="white"/>
<path d="M215.6 429.9C214 429 211.8 429.5 210.9 431.2C210 432.8 210.5 435 212.2 435.9C212.7 436.2 213.3 436.4 213.9 436.4C215.1 436.4 216.3 435.8 216.9 434.7C217.8 433 217.2 430.8 215.6 429.9Z" fill="white"/>
<path d="M218.4 440.9L215.5 435.9C215.1 436.1 214.8 436.2 214.4 436.3L217.5 441.6C217.7 441.3 218 441.1 218.4 440.9Z" fill="white"/>
<path d="M228.4 411.9C228.4 411.6 228.2 411.3 227.9 411.2C227.6 411.1 227.3 411.1 227 411.2L208.1 422C208.5 422.5 208.8 423 208.9 423.6L226.2 413.8L215 429.6C215.2 429.7 215.4 429.8 215.6 429.9C215.8 430 215.9 430.1 216.1 430.2L226.9 414.9L227.5 426L220.5 440.7C220.9 440.8 221.2 440.9 221.6 441.1C221.8 441.2 221.9 441.3 222.1 441.5L229.2 426.6C229.3 426.5 229.3 426.3 229.3 426.2L228.4 411.9Z" fill="white"/>
<path d="M224.7 461.8L224.1 459V458.9C224.1 458.8 224.1 458.7 224.1 458.6L221.5 447.1C221 447.4 220.4 447.5 219.9 447.5H219.8L222.4 459V459.1C222.4 459.2 222.4 459.3 222.4 459.4L222.9 461.6L206.4 472.6C206.3 472.7 206.2 472.8 206.1 472.9L198.2 488.8H192.2C192.1 488.8 192 488.8 191.9 488.8C191.8 488.8 191.7 488.8 191.6 488.8H185.6L177.7 472.9C177.6 472.8 177.5 472.6 177.4 472.6L160.9 461.6L161.4 459.4C161.4 459.3 161.4 459.2 161.4 459.1V459L164.8 444.3L171 433.6C171.1 433.4 171.1 433.2 171 433L158.5 415.2C158.3 415.3 158.1 415.5 157.9 415.6C157.8 415.7 157.6 415.8 157.4 415.8L169.7 433.4L164.2 442.9L157.7 429.2C157.5 429.4 157.2 429.7 156.9 429.8C156.7 429.9 156.4 430 156.2 430.1L162.9 444.2L159.6 458.6C159.6 458.7 159.6 458.8 159.6 458.9V459L159 461.8C158.9 462.2 159.1 462.5 159.4 462.7L176.2 473.9L184.3 490.1C184.4 490.4 184.8 490.6 185.1 490.6H191.6C191.7 490.6 191.8 490.6 191.9 490.6C192 490.6 192.1 490.6 192.2 490.6H198.7C199 490.6 199.3 490.4 199.5 490.1L207.6 473.9L224.4 462.7C224.7 462.5 224.8 462.2 224.7 461.8Z" fill="white"/>
<path d="M175.5 461.4C175.6 461.7 175.9 461.8 176.2 461.9L184 462.6L183 471.9L176 465.8C175.9 465.7 175.8 465.7 175.8 465.7L161 461.9L164 463.9L175.4 466.9L185.8 476.1V480.9C185.8 481.2 185.9 481.4 186.1 481.6L191.1 485.5C191.3 485.6 191.5 485.7 191.6 485.7H191.7H191.8C192 485.7 192.2 485.6 192.3 485.5L197.3 481.6C197.5 481.4 197.6 481.2 197.6 480.9V476.1L208 466.9L219.4 463.9L222.4 461.9L207.6 465.7C207.5 465.7 207.4 465.8 207.4 465.8L200.4 471.9L199.4 462.6L207.2 461.9C207.5 461.9 207.8 461.7 207.9 461.4L211.2 455.1C211.3 454.8 211.3 454.5 211.2 454.2C211 453.9 210.7 453.8 210.4 453.8L202.7 454.4C202.5 454.4 202.3 454.5 202.1 454.7L198.2 458.6C198.1 458.7 198.1 458.8 198 458.8C197.9 458.9 197.8 459.1 197.8 459.3L199.2 472.8L196.7 475H196.6H191.6C191.5 475 191.5 475 191.4 475C191.3 475 191.3 475 191.2 475H186.2H186.1L183.6 472.8L185 459.3C185 459.1 184.9 458.9 184.8 458.8C184.8 458.7 184.7 458.7 184.7 458.6L180.8 454.7C180.7 454.6 180.5 454.5 180.2 454.4L172.5 453.8C172.2 453.8 171.9 453.9 171.7 454.2C171.5 454.5 171.5 454.8 171.7 455.1L175.5 461.4ZM203.5 456.1L209.3 455.6L207 460L200.3 460.6L200.2 459.4L203.5 456.1ZM187.6 476.7H191.7C191.8 476.7 191.8 476.7 191.9 476.7C192 476.7 192 476.7 192.1 476.7H196.2V480.2L191.9 483.5L187.6 480.2V476.7ZM180.3 456.1L183.7 459.5L183.6 460.7L176.9 460.1L174.6 455.7L180.3 456.1Z" fill="white"/>
<path d="M336.5 465.1L338.4 462.7C338.5 462.5 338.6 462.3 338.5 462.1C338.4 461.9 338.2 461.8 338 461.8H334.3C334.1 461.8 333.9 461.9 333.8 462.1C333.7 462.3 333.7 462.5 333.9 462.7L335.8 465.1L333.9 467.5C333.8 467.7 333.7 467.9 333.8 468.1C333.9 468.3 334.1 468.4 334.3 468.4H338C338.2 468.4 338.4 468.3 338.5 468.1C338.6 467.9 338.6 467.7 338.4 467.5L336.5 465.1ZM336.7 463L336 463.9L335.3 463H336.7ZM335.4 467.3L336.1 466.4L336.8 467.3H335.4Z" fill="white"/>
<path d="M365.331 482.5C367.31 481.989 368.5 479.971 367.989 477.993C367.478 476.014 365.46 474.824 363.482 475.335C361.503 475.845 360.313 477.863 360.824 479.842C361.334 481.821 363.352 483.011 365.331 482.5Z" fill="white"/>
<path d="M364.9 462L354.1 451.2C353.9 451 353.7 450.9 353.5 450.9H343.5C343.8 450.2 343.9 449.5 344 448.7H353.1C353.3 448.7 353.6 448.6 353.7 448.4L364.5 437.6C364.7 437.4 364.8 437.2 364.8 437V423.5V423.4C364.5 423.5 364.3 423.5 364 423.5C363.7 423.5 363.4 423.5 363.1 423.4V423.5V436.6L352.7 447H343.9C343.9 446.7 343.8 446.3 343.7 446L353.5 436.2C353.7 436 353.8 435.8 353.8 435.6V419.7C353.8 419.5 353.7 419.2 353.5 419.1L343.8 409.4C343.5 409.1 342.9 409.1 342.6 409.4C342.3 409.7 342.3 410.3 342.6 410.6L352.1 420.1V435.3L343.1 444.3C342.4 443 341.3 441.9 339.9 441.2L340.8 439.8C340.9 439.6 340.9 439.3 340.8 439.1L338.9 436.6C338.7 436.3 338.3 436.3 338.1 436.5C337.8 436.7 337.8 437.1 338 437.3L339.7 439.5L338.9 440.7C338.1 440.4 337.2 440.2 336.2 440.2C335.3 440.2 334.4 440.4 333.6 440.6L332.8 439.4L334.5 437.2C334.7 436.9 334.6 436.6 334.4 436.4C334.1 436.2 333.8 436.3 333.6 436.5L331.7 439C331.6 439.2 331.5 439.5 331.7 439.7L332.6 441.1C331.2 441.8 330.1 442.9 329.4 444.2L320.4 435.2V420L329.9 410.5C330.2 410.2 330.2 409.6 329.9 409.3C329.6 409 329 409 328.7 409.3L319 419C318.8 419.2 318.7 419.4 318.7 419.6V435.5C318.7 435.7 318.8 436 319 436.1L328.7 445.8C328.6 446.1 328.5 446.5 328.5 446.9H319.7L309.4 436.6V423.5V423.4C309.1 423.5 308.8 423.5 308.6 423.5C308.3 423.5 308 423.5 307.7 423.4V423.5V437C307.7 437.2 307.8 437.5 308 437.6L318.8 448.4C319 448.6 319.2 448.7 319.4 448.7H328.5C328.6 449.5 328.7 450.2 329 450.9H319.1C318.9 450.9 318.6 451 318.5 451.2L307.3 462C307.1 462.2 307 462.4 307 462.6V475.6C307.2 475.5 307.5 475.5 307.8 475.5C308.1 475.5 308.5 475.6 308.8 475.6V463L319.1 452.7H328.7C327.4 453.7 326.3 455 325.5 456.4C325.5 456.4 325.4 456.4 325.4 456.5L318.4 463.5C318.2 463.7 318.1 463.9 318.1 464.1V480C318.1 480.2 318.2 480.5 318.4 480.6L328.1 490.3C328.3 490.5 328.5 490.6 328.7 490.6C328.9 490.6 329.1 490.5 329.3 490.3C329.6 490 329.6 489.4 329.3 489.1L319.8 479.6V464.4L324 460.2C323.9 460.9 323.8 461.6 323.8 462.4C323.8 469.1 329.3 474.6 336 474.6C342.7 474.6 348.2 469.1 348.2 462.4C348.2 461.6 348.1 460.9 348 460.1L352.3 464.4V479.6L342.8 489.1C342.5 489.4 342.5 490 342.8 490.3C343 490.5 343.2 490.6 343.4 490.6C343.6 490.6 343.8 490.5 344 490.3L353.7 480.6C353.9 480.4 354 480.2 354 480V464.1C354 463.9 353.9 463.6 353.7 463.5L346.7 456.5C346.6 456.4 346.6 456.4 346.5 456.4C345.7 455 344.6 453.8 343.3 452.8H353L363.3 463.1V475.4C363.6 475.3 363.9 475.3 364.2 475.3C364.5 475.3 364.8 475.3 365 475.4V462.7C365.2 462.4 365.1 462.2 364.9 462ZM346.5 462.4C346.5 468.2 341.8 472.9 336 472.9C330.2 472.9 325.5 468.2 325.5 462.4C325.5 458.6 327.6 455.1 330.9 453.3C331.1 453.2 331.3 453 331.3 452.7C331.3 452.4 331.3 452.2 331.1 452C330.2 450.9 329.8 449.6 329.8 448.2C329.8 448.1 329.8 448 329.8 447.9C329.8 447.8 329.8 447.8 329.8 447.7C330 444.5 332.7 441.9 336 441.9C339.4 441.9 342.2 444.7 342.2 448.1C342.2 449.5 341.7 450.8 340.9 451.9C340.7 452.1 340.7 452.4 340.7 452.6C340.7 452.8 340.9 453.1 341.1 453.2C344.5 455.1 346.5 458.6 346.5 462.4Z" fill="white"/>
<path d="M364 423.5C362 423.5 360.3 421.9 360.3 419.8C360.3 417.7 361.9 416.1 364 416.1C366 416.1 367.7 417.7 367.7 419.8C367.7 421.9 366 423.5 364 423.5ZM364 417.9C362.9 417.9 362.1 418.8 362.1 419.8C362.1 420.8 363 421.7 364 421.7C365 421.7 365.9 420.8 365.9 419.8C365.9 418.8 365 417.9 364 417.9Z" fill="white"/>
<path d="M308.3 423.6C310.343 423.6 312 421.943 312 419.9C312 417.856 310.343 416.2 308.3 416.2C306.257 416.2 304.6 417.856 304.6 419.9C304.6 421.943 306.257 423.6 308.3 423.6Z" fill="white"/>
<path d="M307.8 482.9C305.8 482.9 304.1 481.3 304.1 479.2C304.1 477.2 305.7 475.5 307.8 475.5C309.9 475.5 311.5 477.1 311.5 479.2C311.4 481.3 309.8 482.9 307.8 482.9ZM307.8 477.3C306.7 477.3 305.9 478.2 305.9 479.2C305.9 480.3 306.8 481.1 307.8 481.1C308.8 481.1 309.7 480.2 309.7 479.2C309.7 478.2 308.8 477.3 307.8 477.3Z" fill="white"/>
<path fill-rule="evenodd" clip-rule="evenodd" d="M166.5 161.4C166.5 167.8 167 174.1 167.9 180.4L169.9 193.9C168.1 194.2 166.4 194.4 164.5 194.4C162.6 194.4 160.9 194.2 159.1 193.9L161.1 180.4C162 174.1 162.5 167.8 162.5 161.4V133C163.2 133 163.9 132.9 164.6 132.9C165.3 132.9 166 132.9 166.7 133V161.4H166.5ZM145.8 188.2L153.8 172.6C154.4 171.4 154.7 170.1 154.7 168.8V134.5C142.5 138.6 133.6 150.1 133.6 163.7C133.7 173.7 138.5 182.6 145.8 188.2ZM174.2 168.8C174.2 170.1 174.5 171.4 175.1 172.6L183.1 188.2C190.5 182.6 195.2 173.7 195.2 163.7C195.2 150.1 186.4 138.6 174.1 134.5V168.8H174.2Z" fill="white"/>
<path d="M385 153.7V153H388.4V153.7H385ZM386.3 157.4V153.5H387V157.4H386.3ZM389.1 157.4V153.1H389.8V157.4H389.1ZM391.2 157.4L389.3 153.1H390.1L391.4 156.3L392.7 153.1H393.5L391.6 157.4H391.2ZM392.9 157.4V153.1H393.6V157.4H392.9Z" fill="white"/>
<path d="M230.5 144.9C219 144.9 210.6 153.1 210.6 164.5V164.9C210.6 176.4 218.8 184.5 230.5 184.5C242.2 184.5 250.3 176.4 250.3 164.8V164.4C250.3 152.9 242.1 144.9 230.5 144.9ZM218.7 164.5C218.7 156.3 223.2 151.2 230.5 151.2C237.8 151.2 242.2 156.4 242.2 164.5V164.9C242.2 173 237.6 178.3 230.6 178.3C223.6 178.3 218.7 172.8 218.7 165V164.5Z" fill="white"/>
<path d="M286.4 143.4C285.1 143 284.1 142.9 282.5 142.9C276.3 142.9 272.7 146.4 272.7 152.6V155.7H261.9V152.3C261.9 149.2 263.8 148.5 265.3 148.5C266.5 148.5 267.5 148.8 268.1 149C268.2 149 268.3 149 268.4 149C268.5 148.9 268.5 148.9 268.5 148.8V143.8C268.5 143.7 268.4 143.6 268.3 143.5C267 143.1 266 143 264.5 143C258.2 143 254.7 146.4 254.7 152.7V183.8C254.7 184 254.8 184.1 255 184.1H261.5C261.7 184.1 261.8 184 261.8 183.8V161H272.6V183.6C272.6 183.8 272.7 183.9 272.9 183.9H279.4C279.6 183.9 279.7 183.8 279.7 183.6V161H285.8C286 161 286.1 160.9 286.1 160.7V155.9C286.1 155.7 286 155.6 285.8 155.6H279.7V152.3C279.7 149.2 281.6 148.5 283.1 148.5C284.4 148.5 285.4 148.8 286 149C286.1 149 286.2 149 286.3 149C286.4 149 286.4 148.9 286.4 148.8V143.8C286.6 143.6 286.6 143.5 286.4 143.4Z" fill="white"/>
<path d="M305.7 160.8C299.1 159.9 297.9 158.4 297.9 155.5C297.9 152.6 300.3 150.8 304.3 150.8C308.7 150.8 310.8 152.4 311.5 156.2C311.5 156.3 311.6 156.4 311.8 156.4H318.4C318.5 156.4 318.6 156.4 318.6 156.3C318.7 156.2 318.7 156.2 318.7 156.1C317.9 148.7 313 144.8 304.3 144.8C296.2 144.8 290.5 149.4 290.5 156C290.5 162.6 294.4 166.1 304.4 167.4C311.1 168.5 312.2 170 312.2 172.9C312.2 176.2 309.4 178.4 305.2 178.4C298.7 178.4 297.3 175.2 296.9 171.7C296.9 171.6 296.8 171.4 296.6 171.4H289.7C289.6 171.4 289.5 171.4 289.5 171.5C289.5 171.6 289.4 171.6 289.4 171.7C289.8 177.4 292.9 184.3 305.2 184.3C313.6 184.3 319.7 179.2 319.7 172.3C319.8 164.4 314.4 162 305.7 160.8Z" fill="white"/>
<path d="M347.6 158.4C345.2 156.2 341.9 155 338.1 155C329.6 155 323.7 161 323.7 169.6V170C323.7 178.6 329.6 184.4 338.3 184.4C345.8 184.4 350.7 181 351.6 175.1C351.6 175 351.6 174.9 351.5 174.9C351.4 174.8 351.4 174.8 351.3 174.8H345C344.9 174.8 344.7 174.9 344.7 175C344.2 177.7 342.1 179 338.5 179C334 179 331.3 176.3 331 171.4H351.4C351.6 171.4 351.7 171.3 351.7 171.1V169.2C351.7 164.6 350.3 160.9 347.6 158.4ZM331.2 166.6C331.9 162.6 334.4 160.3 338.1 160.3C342.1 160.3 344.3 162.4 344.6 166.6H331.2Z" fill="white"/>
<path d="M384.1 173.1C384 173 384 173 383.9 173H377.9C377.7 173 377.6 173.1 377.6 173.3C377.3 176.7 374.7 179 371.1 179C366.3 179 363.6 175.7 363.6 170.1V169.7C363.6 164.3 366.5 160.9 371 160.9C374.6 160.9 376.7 162.6 377.2 165.9C377.2 166 377.3 166.2 377.5 166.2H383.8C383.9 166.2 384 166.2 384 166.1C384.1 166 384.1 166 384.1 165.9C383.4 159.1 378.6 155.2 370.9 155.2C362.4 155.2 356.3 161.4 356.3 169.9V170.3C356.3 178.9 362.2 184.7 370.9 184.7C378.5 184.7 383.8 180.3 384.3 173.5C384.2 173.3 384.2 173.2 384.1 173.1Z" fill="white"/>
<defs>
<linearGradient id="paint0_linear_534_32" x1="260" y1="594.27" x2="260" y2="100.273" gradientUnits="userSpaceOnUse">
<stop stop-color="#236262"/>
<stop offset="0.2774" stop-color="#307A7A"/>
<stop offset="0.6283" stop-color="#00BBB4"/>
<stop offset="1" stop-color="#60B47F"/>
</linearGradient>
<linearGradient id="paint1_linear_534_32" x1="259.999" y1="673.499" x2="259.999" y2="236.15" gradientUnits="userSpaceOnUse">
<stop stop-color="#60B47F"/>
<stop offset="0.3717" stop-color="#00BBB4"/>
<stop offset="0.7226" stop-color="#307A7A"/>
<stop offset="1" stop-color="#236262"/>
</linearGradient>
<linearGradient id="paint2_linear_534_32" x1="260" y1="428.117" x2="260" y2="149.239" gradientUnits="userSpaceOnUse">
<stop stop-color="#236262"/>
<stop offset="1" stop-color="#01B8B1"/>
</linearGradient>
</defs>
</svg>
