<svg width="520" height="600" viewBox="0 0 520 600" fill="none" xmlns="http://www.w3.org/2000/svg">
<g clip-path="url(#clip0_1027_934)">
<g clip-path="url(#clip1_1027_934)">
<path d="M0 165.2V434.698C0 445.559 5.7 455.608 15 461.09L245 595.889C254.3 601.37 265.7 601.37 275 595.889L505 461.09C514.3 455.608 520 445.559 520 434.698V165.2C520 154.339 514.3 144.29 505 138.809L275 4.11098C265.7 -1.37033 254.3 -1.37033 245 4.11098L15 138.809C5.7 144.29 0 154.339 0 165.2Z" fill="#1C1822"/>
<path opacity="0.15" d="M0 165.2V434.698C0 445.559 5.7 455.608 15 461.09L245 595.889C254.3 601.37 265.7 601.37 275 595.889L505 461.09C514.3 455.608 520 445.559 520 434.698V165.2C520 154.339 514.3 144.29 505 138.809L275 4.11098C265.7 -1.37033 254.3 -1.37033 245 4.11098L15 138.809C5.7 144.29 0 154.339 0 165.2Z" fill="#E66124"/>
<g opacity="0.9">
<path d="M245.906 558.113L245.903 558.11L46.9063 441.483C38.1567 436.326 32.7849 426.865 32.7849 416.629V183.369C32.7849 173.133 38.156 163.673 46.9046 158.516C46.9052 158.516 46.9057 158.515 46.9063 158.515L245.902 41.9891L245.906 41.9866C254.647 36.8349 265.353 36.8349 274.094 41.9866L274.098 41.9891L473.094 158.515C473.094 158.515 473.095 158.516 473.096 158.516C481.844 163.673 487.215 173.134 487.215 183.369V416.629C487.215 426.865 481.843 436.326 473.094 441.483L274.097 558.11L274.094 558.113C265.353 563.264 254.647 563.264 245.906 558.113Z" fill="#2A262F" stroke="#E66124" stroke-width="3.56979"/>
<path d="M288.821 464.444C288.513 464.444 288.219 464.314 288.009 464.085C268.899 443.08 258.749 433.934 227.711 421.124C227.202 420.914 226.927 420.358 227.071 419.822C227.216 419.29 227.729 418.94 228.28 419.019C268.124 424.39 294.183 462.041 294.439 462.424C294.659 462.75 294.691 463.17 294.519 463.525C294.346 463.88 293.996 464.113 293.604 464.141L288.891 464.449C288.867 464.449 288.844 464.449 288.821 464.449V464.444Z" fill="url(#paint0_linear_1027_934)"/>
<path d="M331.357 501.75C331.217 501.288 330.788 500.97 330.303 500.97H330.293C330.223 500.97 327.493 500.947 321.399 498.67C315.925 496.621 309.391 490.802 307.837 489.22C307.898 489.201 307.968 489.187 308.047 489.168C308.229 489.131 308.397 489.052 308.542 488.93C308.957 488.58 309.195 488.086 309.219 487.507C309.307 485.402 306.339 482.364 305.999 482.028C305.546 481.571 302.984 477.6 297.267 467.921L297.113 467.66C297.085 467.618 297.067 467.571 297.043 467.529C296.889 467.235 296.661 466.787 295.993 466.344C295.909 466.288 295.816 466.241 295.718 466.213C294.071 465.681 288.844 466.484 286.567 466.871C286.235 466.46 285.736 465.779 285.54 465.508C285.358 465.261 285.223 465.079 285.181 465.028C283.524 463.091 281.709 461.192 279.781 459.386C273.752 453.725 267.387 449.651 260.853 447.271C255.263 445.232 250.349 439.926 249.173 434.643C249.079 434.218 248.986 433.766 248.986 433.364C248.986 432.856 248.636 432.412 248.137 432.296C247.642 432.179 247.129 432.422 246.905 432.879C244.973 436.808 246.205 442.203 247.059 444.961C234.729 443.757 230.352 434.592 230.17 434.195C229.969 433.752 229.493 433.5 229.008 433.565C228.523 433.635 228.145 434.022 228.079 434.508C227.099 441.802 230.413 446.338 232.62 448.489C222.932 450.15 215.806 442.399 215.731 442.315C215.442 441.993 214.994 441.872 214.583 442.002C214.173 442.133 213.874 442.492 213.823 442.922C213.785 443.23 213.095 450.234 223.184 455.699C217.836 460.884 214.901 467.258 214.457 474.664C213.944 483.237 216.982 492.015 220.837 498.422C220.365 498.945 220.029 499.58 219.861 500.284C219.595 501.395 219.777 502.548 220.375 503.523C220.972 504.498 221.915 505.184 223.025 505.45C223.361 505.53 223.697 505.572 224.033 505.572C224.813 505.572 225.578 505.357 226.259 504.942C226.133 505.016 226.003 505.082 225.877 505.142C228.219 508.008 229.825 510.808 230.931 513.23C230.086 513.827 229.493 514.7 229.251 515.712C228.985 516.823 229.167 517.976 229.764 518.946C230.361 519.922 231.304 520.608 232.415 520.874C232.751 520.953 233.082 520.99 233.413 520.99C235.313 520.99 237.044 519.712 237.548 517.808H267.48C267.587 518.204 267.746 518.587 267.97 518.946C268.567 519.922 269.51 520.608 270.621 520.874C270.957 520.953 271.288 520.99 271.619 520.99C273.551 520.99 275.311 519.67 275.782 517.71C276.048 516.599 275.866 515.446 275.269 514.476C274.671 513.5 273.729 512.814 272.618 512.548C271.895 512.376 271.153 512.394 270.457 512.59C266.948 507.27 260.984 500.616 253.9 495.011C253.961 494.852 254.012 494.689 254.054 494.516C254.32 493.406 254.138 492.258 253.541 491.282C252.943 490.307 252.001 489.621 250.89 489.355C249.779 489.084 248.627 489.271 247.656 489.868C247.488 489.971 247.334 490.088 247.18 490.209C239.802 485.071 237.725 477.544 238.985 472.564C239.181 471.794 239.457 471.076 239.797 470.413C240.049 470.53 240.315 470.623 240.591 470.688C240.927 470.768 241.263 470.805 241.589 470.805C243.521 470.805 245.281 469.484 245.752 467.524C245.906 466.871 245.901 466.222 245.766 465.606C246.709 465.317 247.726 465.126 248.823 465.042C261.437 464.104 274.527 473.983 276.967 475.924C276.879 479.821 277.126 483.606 279.94 487.129C281.961 489.658 287.537 492.15 292.017 494.152C293.893 494.992 295.517 495.716 296.469 496.266C297.771 497.013 309.373 503.822 316.377 512.936C316.606 513.23 316.97 513.393 317.339 513.36C317.712 513.328 318.043 513.113 318.216 512.782C319.135 511.06 326.49 505.856 330.905 502.977C331.315 502.711 331.493 502.207 331.353 501.74L331.357 501.75ZM222.213 497.405C222.213 497.405 222.227 497.4 222.237 497.396C222.227 497.396 222.223 497.4 222.213 497.405ZM237.651 517.229C237.655 517.182 237.66 517.136 237.665 517.084C237.665 517.131 237.66 517.178 237.651 517.229ZM267.354 516.342C267.354 516.296 267.359 516.249 267.368 516.198C267.363 516.244 267.359 516.291 267.354 516.342ZM238.621 469.606C238.621 469.606 238.645 469.629 238.654 469.638C238.645 469.629 238.631 469.615 238.621 469.606ZM239.158 470.049C239.158 470.049 239.205 470.077 239.223 470.096C239.2 470.082 239.177 470.068 239.158 470.049ZM245.374 464.533C245.374 464.533 245.388 464.561 245.397 464.575C245.388 464.561 245.383 464.547 245.374 464.533ZM245.071 464.043C245.089 464.071 245.113 464.104 245.131 464.132C245.113 464.104 245.094 464.071 245.071 464.043ZM232.499 512.53C232.499 512.53 232.522 512.525 232.531 512.52C232.522 512.52 232.508 512.525 232.499 512.53Z" fill="url(#paint1_linear_1027_934)"/>
<path d="M288.821 464.444C288.513 464.444 288.219 464.314 288.009 464.085C268.899 443.08 258.749 433.934 227.711 421.124C227.202 420.914 226.927 420.358 227.071 419.822C227.216 419.29 227.729 418.94 228.28 419.019C268.124 424.39 294.183 462.041 294.439 462.424C294.659 462.75 294.691 463.17 294.519 463.525C294.346 463.88 293.996 464.113 293.604 464.141L288.891 464.449C288.867 464.449 288.844 464.449 288.821 464.449V464.444ZM238.696 423.49C262.347 434.312 272.389 443.678 289.278 462.218L291.471 462.074C286.655 455.69 267.135 431.838 238.696 423.49Z" fill="white"/>
<path d="M302.359 485.37C302.345 485.295 302.312 485.22 302.265 485.16C301.444 484.142 300.455 482.411 299.559 480.941C299.106 480.204 298.677 479.527 298.28 479.018C298.079 478.762 297.888 478.547 297.687 478.379C297.487 478.216 297.272 478.071 296.959 478.062C296.815 478.062 296.661 478.108 296.539 478.192C296.418 478.276 296.329 478.384 296.264 478.5V478.514C296.059 478.897 295.993 479.364 295.989 479.896C295.993 480.866 296.245 482.024 296.861 482.882C297.109 483.218 297.449 483.545 297.837 483.872C298.835 484.712 300.109 485.5 300.441 485.701L300.469 485.757C300.497 485.818 300.529 485.92 300.562 486.079C300.595 486.261 300.739 486.406 300.921 486.443C301.206 486.499 301.421 486.532 301.617 486.532C301.803 486.532 301.999 486.508 302.186 486.359C302.279 486.284 302.345 486.177 302.377 486.079C302.41 485.981 302.419 485.892 302.419 485.818C302.419 485.631 302.382 485.505 302.359 485.374V485.37Z" fill="white"/>
<path d="M234.407 512.548C233.292 512.282 232.144 512.464 231.173 513.062C230.198 513.659 229.517 514.602 229.246 515.712C228.98 516.823 229.162 517.976 229.759 518.946C230.357 519.922 231.299 520.608 232.41 520.874C232.746 520.953 233.077 520.99 233.409 520.99C235.341 520.99 237.1 519.67 237.571 517.71C237.837 516.599 237.655 515.446 237.058 514.476C236.461 513.5 235.518 512.814 234.407 512.548Z" fill="white"/>
<path d="M253.541 491.282C252.943 490.307 252.001 489.621 250.89 489.355C249.779 489.084 248.627 489.271 247.656 489.868C246.681 490.466 245.999 491.408 245.729 492.519C245.463 493.63 245.645 494.778 246.242 495.753C246.839 496.728 247.782 497.414 248.893 497.68C249.229 497.76 249.565 497.802 249.901 497.802C250.68 497.802 251.45 497.587 252.131 497.172C253.107 496.574 253.788 495.632 254.059 494.521C254.325 493.41 254.143 492.262 253.545 491.287L253.541 491.282Z" fill="white"/>
<path d="M271.619 520.99C271.288 520.99 270.957 520.953 270.621 520.874C269.51 520.608 268.567 519.922 267.97 518.946C267.373 517.971 267.191 516.823 267.457 515.712C267.723 514.602 268.409 513.659 269.384 513.062C270.359 512.464 271.507 512.282 272.618 512.548C273.729 512.814 274.671 513.5 275.269 514.476C275.866 515.451 276.048 516.599 275.782 517.71C275.311 519.67 273.551 520.99 271.619 520.99ZM271.134 518.736C272.254 519.007 273.383 518.312 273.649 517.196C273.78 516.655 273.691 516.095 273.402 515.619C273.113 515.143 272.651 514.812 272.109 514.681C271.563 514.55 271.008 514.639 270.532 514.928C270.056 515.218 269.725 515.68 269.594 516.221C269.463 516.762 269.552 517.322 269.841 517.798C270.131 518.274 270.593 518.606 271.129 518.736H271.134Z" fill="white"/>
<path d="M224.033 505.567C223.697 505.567 223.361 505.525 223.025 505.446C221.915 505.18 220.972 504.494 220.375 503.518C219.777 502.543 219.595 501.395 219.861 500.28C220.127 499.169 220.813 498.226 221.789 497.629C222.764 497.032 223.912 496.85 225.027 497.116C226.138 497.382 227.081 498.068 227.678 499.043C228.275 500.018 228.457 501.166 228.191 502.277C227.925 503.388 227.239 504.33 226.264 504.928C225.583 505.348 224.817 505.558 224.038 505.558L224.033 505.567ZM224.019 499.197C223.641 499.197 223.268 499.3 222.932 499.505C222.456 499.794 222.125 500.256 221.994 500.798C221.863 501.339 221.952 501.899 222.241 502.375C222.531 502.851 222.993 503.182 223.534 503.313C224.075 503.444 224.635 503.355 225.111 503.066C225.587 502.776 225.919 502.314 226.049 501.773C226.18 501.232 226.091 500.672 225.802 500.196C225.513 499.72 225.051 499.388 224.509 499.258C224.346 499.22 224.183 499.197 224.019 499.197Z" fill="white"/>
<path d="M241.594 470.814C241.263 470.814 240.931 470.777 240.595 470.698C238.299 470.147 236.881 467.832 237.431 465.536C237.697 464.426 238.383 463.483 239.359 462.886C240.334 462.288 241.482 462.106 242.597 462.372C244.893 462.923 246.312 465.238 245.761 467.534C245.29 469.494 243.531 470.814 241.599 470.814H241.594ZM241.109 468.56C242.229 468.826 243.353 468.136 243.624 467.02C243.89 465.905 243.199 464.776 242.084 464.505C241.543 464.374 240.983 464.463 240.507 464.752C240.031 465.042 239.699 465.504 239.569 466.045C239.298 467.165 239.993 468.29 241.109 468.56Z" fill="white"/>
<path d="M268.577 513.715C268.819 513.472 269.081 513.244 269.379 513.057C269.72 512.847 270.079 512.693 270.453 512.586C266.943 507.261 260.97 500.602 253.881 494.997C253.62 495.702 253.191 496.313 252.617 496.789C259.453 502.207 265.203 508.605 268.567 513.71L268.577 513.715Z" fill="white"/>
<path d="M237.534 517.808H267.48C267.298 517.131 267.289 516.412 267.457 515.708C267.466 515.675 267.48 515.642 267.489 515.61H246.055C243.213 512.348 229.927 496.243 231.659 482.136C232.177 477.917 234.015 474.226 237.128 471.108C237.03 471.407 236.937 471.715 236.857 472.032C235.107 478.958 238.813 487.031 245.906 492.006C246.172 491.306 246.611 490.694 247.189 490.223C239.802 485.085 237.725 477.553 238.985 472.574C239.181 471.804 239.457 471.085 239.797 470.422C238.925 470.021 238.239 469.34 237.805 468.523C233.413 472.168 230.851 476.671 230.203 481.968C229.148 490.559 233.381 499.696 237.114 505.852C239.751 510.196 242.518 513.701 244.123 515.619H237.539C237.721 516.296 237.73 517.014 237.562 517.714C237.553 517.747 237.539 517.78 237.529 517.812L237.534 517.808Z" fill="white"/>
<path d="M226.259 504.937C226.133 505.012 226.003 505.077 225.877 505.138C228.224 508.008 229.834 510.812 230.935 513.239C231.015 513.183 231.085 513.113 231.173 513.062C231.733 512.716 232.354 512.516 232.989 512.455C231.813 509.842 230.086 506.808 227.547 503.71C227.211 504.2 226.782 504.62 226.264 504.937H226.259Z" fill="white"/>
<path d="M331.357 501.75C331.217 501.288 330.788 500.97 330.303 500.97H330.293C330.223 500.97 327.493 500.947 321.399 498.67C315.925 496.621 309.391 490.802 307.837 489.22C307.898 489.201 307.968 489.187 308.047 489.168C308.229 489.131 308.397 489.052 308.542 488.93C308.957 488.58 309.195 488.086 309.219 487.507C309.307 485.402 306.339 482.364 305.999 482.028C305.546 481.571 302.984 477.6 297.267 467.921L297.113 467.66C297.085 467.618 297.067 467.571 297.043 467.529C296.889 467.235 296.661 466.787 295.993 466.344C295.909 466.288 295.816 466.241 295.718 466.213C294.071 465.686 288.844 466.484 286.567 466.871C286.235 466.46 285.736 465.779 285.54 465.508C285.358 465.261 285.223 465.079 285.181 465.028C283.524 463.091 281.709 461.192 279.781 459.386C273.752 453.725 267.387 449.651 260.853 447.271C255.263 445.232 250.349 439.926 249.173 434.643C249.079 434.218 248.986 433.766 248.986 433.364C248.986 432.856 248.636 432.412 248.137 432.296C247.642 432.179 247.129 432.422 246.905 432.879C244.973 436.808 246.205 442.203 247.059 444.961C234.729 443.757 230.352 434.592 230.17 434.195C229.969 433.752 229.493 433.5 229.008 433.565C228.523 433.635 228.145 434.022 228.079 434.503C227.099 441.797 230.413 446.333 232.62 448.484C222.932 450.146 215.806 442.394 215.731 442.31C215.442 441.988 214.994 441.867 214.583 441.998C214.173 442.128 213.874 442.488 213.823 442.917C213.785 443.225 213.095 450.23 223.184 455.694C217.836 460.884 214.901 467.258 214.457 474.664C213.944 483.246 216.987 492.034 220.846 498.441C221.121 498.138 221.425 497.853 221.784 497.634C222.064 497.461 222.363 497.326 222.666 497.228C219.026 491.17 216.165 482.887 216.646 474.8C217.085 467.468 220.169 461.234 225.811 456.254C226.087 456.012 226.222 455.643 226.171 455.279C226.119 454.915 225.891 454.598 225.559 454.439C219.609 451.588 217.346 448.26 216.497 445.964C219.945 448.694 226.829 452.694 235.341 450.085C235.751 449.959 236.05 449.604 236.106 449.18C236.162 448.755 235.966 448.335 235.597 448.106C235.541 448.069 230.679 444.952 230.142 438.232C232.741 441.587 238.122 446.524 247.558 447.206C247.595 447.206 247.637 447.206 247.67 447.206C247.959 447.196 248.249 447.196 248.533 447.196C248.557 447.196 248.585 447.201 248.599 447.196C248.963 447.196 249.299 447.019 249.504 446.72C249.709 446.422 249.751 446.044 249.625 445.703C248.939 443.925 248.137 440.994 248.076 438.218C250.288 443.048 254.936 447.453 260.093 449.329C266.346 451.606 272.459 455.531 278.269 460.982C280.136 462.732 281.895 464.575 283.491 466.437C283.533 466.488 283.631 466.624 283.757 466.796C285.181 468.747 285.563 469.27 286.394 469.12C289.782 468.518 293.772 468.056 294.892 468.262C294.976 468.336 295.009 468.397 295.079 468.532C295.125 468.616 295.167 468.705 295.219 468.789L295.363 469.036C300.604 477.912 303.656 482.803 304.435 483.582C305.756 484.903 306.792 486.471 306.983 487.18C306.311 487.409 305.859 487.754 305.607 488.235C305.425 488.585 305.275 489.159 305.602 489.92C305.989 490.82 314.016 498.25 320.624 500.723C323.527 501.81 325.729 502.412 327.293 502.748C324.231 504.82 319.425 508.218 317.245 510.514C309.937 501.619 298.849 495.109 297.561 494.372C296.511 493.77 294.841 493.023 292.909 492.16C288.872 490.354 283.342 487.88 281.653 485.766C279.165 482.658 279.058 479.256 279.175 475.458C279.184 475.122 279.044 474.804 278.787 474.585C278.633 474.454 274.937 471.342 269.384 468.318C264.218 465.508 256.439 462.284 248.659 462.858C247.25 462.965 245.943 463.231 244.739 463.632C245.248 464.188 245.603 464.869 245.766 465.611C246.709 465.322 247.726 465.13 248.823 465.046C261.437 464.108 274.527 473.988 276.967 475.929C276.879 479.826 277.126 483.61 279.94 487.134C281.961 489.663 287.537 492.155 292.017 494.157C293.893 494.997 295.517 495.72 296.469 496.271C297.771 497.018 309.373 503.826 316.377 512.94C316.606 513.234 316.97 513.398 317.339 513.365C317.712 513.332 318.043 513.118 318.216 512.786C319.135 511.064 326.49 505.861 330.905 502.982C331.315 502.716 331.493 502.212 331.353 501.745L331.357 501.75Z" fill="white"/>
</g>
<path d="M520 220.928H0V393.081H520V220.928Z" fill="#25212B"/>
<path d="M436.726 336.36V277.08H451.366V336.36H436.726ZM415.006 313.44V300H473.086V313.44H415.006Z" fill="white"/>
<path d="M354.862 321.12V306.36H371.902C375.342 306.36 378.222 305.68 380.542 304.32C382.942 302.96 384.742 301.08 385.942 298.68C387.222 296.28 387.862 293.52 387.862 290.4C387.862 287.28 387.222 284.52 385.942 282.12C384.742 279.72 382.942 277.88 380.542 276.6C378.222 275.24 375.342 274.56 371.902 274.56H354.862V259.8H370.462C377.822 259.8 384.062 261 389.182 263.4C394.382 265.8 398.342 269.24 401.062 273.72C403.782 278.12 405.142 283.36 405.142 289.44V291.36C405.142 297.44 403.782 302.72 401.062 307.2C398.342 311.6 394.382 315.04 389.182 317.52C384.062 319.92 377.822 321.12 370.462 321.12H354.862ZM340.222 348V259.8H357.262V348H340.222Z" fill="white"/>
<path d="M283.843 350.28C275.923 350.28 269.123 348.88 263.443 346.08C257.763 343.28 253.123 339.64 249.523 335.16C246.003 330.68 243.403 325.8 241.723 320.52C240.043 315.24 239.203 310.16 239.203 305.28V302.64C239.203 297.2 240.043 291.84 241.723 286.56C243.483 281.28 246.163 276.48 249.763 272.16C253.363 267.84 257.923 264.4 263.443 261.84C269.043 259.2 275.643 257.88 283.243 257.88C291.163 257.88 298.043 259.32 303.883 262.2C309.803 265 314.523 269 318.043 274.2C321.563 279.32 323.683 285.32 324.403 292.2H307.243C306.603 288.2 305.163 284.84 302.923 282.12C300.763 279.32 298.003 277.24 294.643 275.88C291.283 274.44 287.483 273.72 283.243 273.72C278.923 273.72 275.083 274.48 271.723 276C268.363 277.44 265.563 279.52 263.323 282.24C261.083 284.96 259.363 288.16 258.163 291.84C257.043 295.52 256.483 299.6 256.483 304.08C256.483 308.4 257.043 312.4 258.163 316.08C259.363 319.76 261.123 323 263.443 325.8C265.763 328.52 268.603 330.64 271.963 332.16C275.403 333.68 279.363 334.44 283.843 334.44C290.403 334.44 295.923 332.84 300.403 329.64C304.963 326.36 307.723 321.8 308.683 315.96H325.843C325.043 322.2 322.923 327.92 319.483 333.12C316.043 338.32 311.323 342.48 305.323 345.6C299.323 348.72 292.163 350.28 283.843 350.28Z" fill="white"/>
<path d="M193.383 350.28C185.623 350.28 179.063 349.04 173.703 346.56C168.423 344.08 164.383 340.68 161.583 336.36C158.783 331.96 157.383 327 157.383 321.48H174.063C174.063 323.8 174.703 326.08 175.983 328.32C177.263 330.48 179.303 332.24 182.103 333.6C184.983 334.96 188.743 335.64 193.383 335.64C197.543 335.64 201.023 335.04 203.823 333.84C206.623 332.64 208.703 331.08 210.063 329.16C211.423 327.16 212.103 324.92 212.103 322.44C212.103 319.32 210.783 316.84 208.143 315C205.503 313.08 201.423 311.88 195.903 311.4L188.223 310.8C179.823 310.08 173.103 307.48 168.063 303C163.103 298.44 160.623 292.44 160.623 285C160.623 279.4 161.943 274.6 164.583 270.6C167.223 266.52 170.903 263.4 175.623 261.24C180.423 259 186.023 257.88 192.423 257.88C199.063 257.88 204.783 259.04 209.583 261.36C214.383 263.68 218.103 266.96 220.743 271.2C223.383 275.36 224.703 280.28 224.703 285.96H208.023C208.023 283.56 207.423 281.36 206.223 279.36C205.103 277.28 203.383 275.64 201.063 274.44C198.823 273.16 195.943 272.52 192.423 272.52C189.063 272.52 186.263 273.08 184.023 274.2C181.783 275.32 180.103 276.84 178.983 278.76C177.863 280.68 177.303 282.76 177.303 285C177.303 287.72 178.303 290.12 180.303 292.2C182.303 294.2 185.463 295.36 189.783 295.68L197.463 296.4C203.703 296.88 209.183 298.2 213.903 300.36C218.623 302.52 222.263 305.44 224.823 309.12C227.463 312.8 228.783 317.24 228.783 322.44C228.783 327.96 227.343 332.84 224.463 337.08C221.583 341.24 217.463 344.48 212.103 346.8C206.823 349.12 200.583 350.28 193.383 350.28Z" fill="white"/>
<path d="M101.304 350.28C93.3838 350.28 86.5038 348.88 80.6638 346.08C74.9038 343.28 70.1038 339.64 66.2638 335.16C62.5038 330.6 59.6638 325.72 57.7438 320.52C55.9038 315.24 54.9838 310.16 54.9838 305.28V302.64C54.9838 297.28 55.9438 291.96 57.8638 286.68C59.7838 281.32 62.6638 276.48 66.5038 272.16C70.4238 267.84 75.2638 264.4 81.0238 261.84C86.7838 259.2 93.5438 257.88 101.304 257.88C108.984 257.88 115.704 259.2 121.464 261.84C127.224 264.4 132.024 267.84 135.864 272.16C139.784 276.48 142.704 281.32 144.624 286.68C146.544 291.96 147.504 297.28 147.504 302.64V305.28C147.504 310.16 146.544 315.24 144.624 320.52C142.784 325.72 139.944 330.6 136.104 335.16C132.344 339.64 127.544 343.28 121.704 346.08C115.944 348.88 109.144 350.28 101.304 350.28ZM101.304 334.44C105.784 334.44 109.784 333.64 113.304 332.04C116.904 330.44 119.944 328.24 122.424 325.44C124.984 322.56 126.904 319.32 128.184 315.72C129.544 312.04 130.224 308.16 130.224 304.08C130.224 299.68 129.544 295.64 128.184 291.96C126.904 288.28 124.984 285.08 122.424 282.36C119.944 279.64 116.904 277.52 113.304 276C109.704 274.48 105.704 273.72 101.304 273.72C96.8238 273.72 92.7838 274.48 89.1838 276C85.5838 277.52 82.5038 279.64 79.9438 282.36C77.4638 285.08 75.5438 288.28 74.1838 291.96C72.9038 295.64 72.2638 299.68 72.2638 304.08C72.2638 308.16 72.9038 312.04 74.1838 315.72C75.5438 319.32 77.4638 322.56 79.9438 325.44C82.5038 328.24 85.5838 330.44 89.1838 332.04C92.7838 333.64 96.8238 334.44 101.304 334.44Z" fill="white"/>
<path fill-rule="evenodd" clip-rule="evenodd" d="M166.5 159.313C166.5 165.809 167 172.204 167.9 178.599L169.9 192.302C168.1 192.607 166.4 192.81 164.5 192.81C162.6 192.81 160.9 192.607 159.1 192.302L161.1 178.599C162 172.204 162.5 165.809 162.5 159.313V130.485C163.2 130.485 163.9 130.384 164.6 130.384C165.3 130.384 166 130.384 166.7 130.485V159.313H166.5ZM145.8 186.516L153.8 170.682C154.4 169.463 154.7 168.144 154.7 166.824V132.008C142.5 136.17 133.6 147.843 133.6 161.648C133.7 171.798 138.5 180.832 145.8 186.516ZM174.2 166.824C174.2 168.144 174.5 169.463 175.1 170.682L183.1 186.516C190.5 180.832 195.2 171.798 195.2 161.648C195.2 147.843 186.4 136.17 174.1 132.008V166.824H174.2Z" fill="white"/>
<path d="M385 151.498V150.787H388.4V151.498H385ZM386.3 155.253V151.295H387V155.253H386.3ZM389.1 155.253V150.889H389.8V155.253H389.1ZM391.2 155.253L389.3 150.889H390.1L391.4 154.137L392.7 150.889H393.5L391.6 155.253H391.2ZM392.9 155.253V150.889H393.6V155.253H392.9Z" fill="white"/>
<path d="M230.5 142.565C219 142.565 210.6 150.889 210.6 162.461V162.867C210.6 174.54 218.8 182.762 230.5 182.762C242.2 182.762 250.3 174.54 250.3 162.765V162.359C250.3 150.686 242.1 142.565 230.5 142.565ZM218.7 162.461C218.7 154.137 223.2 148.96 230.5 148.96C237.8 148.96 242.2 154.239 242.2 162.461V162.867C242.2 171.089 237.6 176.468 230.6 176.468C223.6 176.468 218.7 170.886 218.7 162.968V162.461Z" fill="white"/>
<path d="M286.4 141.043C285.1 140.637 284.1 140.535 282.5 140.535C276.3 140.535 272.7 144.088 272.7 150.381V153.528H261.9V150.077C261.9 146.93 263.8 146.219 265.3 146.219C266.5 146.219 267.5 146.524 268.1 146.727C268.2 146.727 268.3 146.727 268.4 146.727C268.5 146.626 268.5 146.626 268.5 146.524V141.449C268.5 141.347 268.4 141.246 268.3 141.144C267 140.738 266 140.637 264.5 140.637C258.2 140.637 254.7 144.088 254.7 150.483V182.051C254.7 182.254 254.8 182.356 255 182.356H261.5C261.7 182.356 261.8 182.254 261.8 182.051V158.908H272.6V181.848C272.6 182.051 272.7 182.152 272.9 182.152H279.4C279.6 182.152 279.7 182.051 279.7 181.848V158.908H285.8C286 158.908 286.1 158.806 286.1 158.603V153.731C286.1 153.528 286 153.426 285.8 153.426H279.7V150.077C279.7 146.93 281.6 146.219 283.1 146.219C284.4 146.219 285.4 146.524 286 146.727C286.1 146.727 286.2 146.727 286.3 146.727C286.4 146.727 286.4 146.626 286.4 146.524V141.449C286.6 141.246 286.6 141.144 286.4 141.043Z" fill="white"/>
<path d="M305.7 158.705C299.1 157.791 297.9 156.269 297.9 153.325C297.9 150.381 300.3 148.554 304.3 148.554C308.7 148.554 310.8 150.178 311.5 154.036C311.5 154.137 311.6 154.239 311.8 154.239H318.4C318.5 154.239 318.6 154.239 318.6 154.137C318.7 154.036 318.7 154.036 318.7 153.934C317.9 146.423 313 142.464 304.3 142.464C296.2 142.464 290.5 147.133 290.5 153.832C290.5 160.532 294.4 164.085 304.4 165.404C311.1 166.521 312.2 168.043 312.2 170.987C312.2 174.337 309.4 176.57 305.2 176.57C298.7 176.57 297.3 173.322 296.9 169.769C296.9 169.667 296.8 169.464 296.6 169.464H289.7C289.6 169.464 289.5 169.464 289.5 169.566C289.5 169.667 289.4 169.667 289.4 169.769C289.8 175.555 292.9 182.559 305.2 182.559C313.6 182.559 319.7 177.382 319.7 170.378C319.8 162.359 314.4 159.923 305.7 158.705Z" fill="white"/>
<path d="M347.6 156.269C345.2 154.035 341.9 152.817 338.1 152.817C329.6 152.817 323.7 158.908 323.7 167.637V168.043C323.7 176.773 329.6 182.66 338.3 182.66C345.8 182.66 350.7 179.209 351.6 173.22C351.6 173.119 351.6 173.017 351.5 173.017C351.4 172.915 351.4 172.916 351.3 172.916H345C344.9 172.916 344.7 173.017 344.7 173.119C344.2 175.859 342.1 177.179 338.5 177.179C334 177.179 331.3 174.438 331 169.464H351.4C351.6 169.464 351.7 169.363 351.7 169.16V167.231C351.7 162.562 350.3 158.806 347.6 156.269ZM331.2 164.592C331.9 160.532 334.4 158.197 338.1 158.197C342.1 158.197 344.3 160.329 344.6 164.592H331.2Z" fill="white"/>
<path d="M384.1 171.19C384 171.089 384 171.089 383.9 171.089H377.9C377.7 171.089 377.6 171.19 377.6 171.393C377.3 174.844 374.7 177.179 371.1 177.179C366.3 177.179 363.6 173.829 363.6 168.145V167.739C363.6 162.258 366.5 158.806 371 158.806C374.6 158.806 376.7 160.532 377.2 163.882C377.2 163.983 377.3 164.186 377.5 164.186H383.8C383.9 164.186 384 164.186 384 164.085C384.1 163.983 384.1 163.983 384.1 163.882C383.4 156.979 378.6 153.021 370.9 153.021C362.4 153.021 356.3 159.314 356.3 167.942V168.348C356.3 177.077 362.2 182.965 370.9 182.965C378.5 182.965 383.8 178.498 384.3 171.596C384.2 171.393 384.2 171.292 384.1 171.19Z" fill="white"/>
</g>
</g>
<defs>
<linearGradient id="paint0_linear_1027_934" x1="272.598" y1="414.906" x2="272.598" y2="624.592" gradientUnits="userSpaceOnUse">
<stop stop-color="#FF5500"/>
<stop offset="1" stop-color="#FF5500" stop-opacity="0"/>
</linearGradient>
<linearGradient id="paint1_linear_1027_934" x1="272.604" y1="401.667" x2="272.604" y2="509.061" gradientUnits="userSpaceOnUse">
<stop stop-color="#FF5500"/>
<stop offset="1" stop-color="#FF5500" stop-opacity="0"/>
</linearGradient>
<clipPath id="clip0_1027_934">
<rect width="520" height="600" fill="white"/>
</clipPath>
<clipPath id="clip1_1027_934">
<rect width="520" height="600" fill="white"/>
</clipPath>
</defs>
</svg>
